<svg xmlns="http://www.w3.org/2000/svg" aria-hidden="true" overflow="hidden" style="position:absolute;width:0;height:0">
  <defs>
    <symbol id="icon-star3small" viewBox="0 0 32 32">
      <path d="m9.964 1.136 8.156 9.994 12.812-1.482-9.996 8.152 1.484 12.812-8.154-9.994-12.812 1.484 9.994-8.154L9.964 1.136z"/>
    </symbol>
    <symbol id="icon-star2mid" viewBox="0 0 32 32">
      <path d="m24.978 0-3.491 14.321 10.184 10.657-14.321-3.491L6.692 31.671l3.491-14.321L0 6.692l14.321 3.491L24.978 0z"/>
    </symbol>
    <symbol id="icon-star1big" viewBox="0 0 32 32">
      <path d="M6.693 0 17.35 10.184l14.322-3.491-10.184 10.658 3.491 14.322-10.657-10.184L0 24.98l10.184-10.657L6.693.001z"/>
    </symbol>
    <symbol id="icon-krown3" viewBox="0 0 32 32">
      <path d="M30.932 9.084a1.836 1.836 0 0 0-.953-.463l-.011-.001a1.754 1.754 0 0 0-1.051.168l.01-.005-6.887 3.36a.24.24 0 0 1-.291-.032.298.298 0 0 1-.063-.086l-.001-.002-4.023-7.951a2.03 2.03 0 0 0-.689-.789l-.007-.005a1.748 1.748 0 0 0-.967-.292 1.76 1.76 0 0 0-.974.296l.006-.004a2.016 2.016 0 0 0-.691.782l-.005.012-4.022 7.949a.277.277 0 0 1-.065.089.247.247 0 0 1-.088.053l-.002.001a.242.242 0 0 1-.201-.023l.001.001-6.887-3.36a1.732 1.732 0 0 0-1.049-.168l.01-.001a1.822 1.822 0 0 0-.965.463l.001-.001c-.274.253-.48.574-.591.938l-.004.015a2.312 2.312 0 0 0-.044 1.171l-.003-.015 3.479 16.245c.058.274.167.533.32.76s.345.417.566.56a1.736 1.736 0 0 0 1.487.225c2.914-.923 6.265-1.455 9.74-1.455 3.458 0 6.792.526 9.928 1.503l-.236-.063a1.776 1.776 0 0 0 1.498-.208l-.007.004c.228-.149.419-.337.566-.555l.004-.007c.154-.228.265-.488.324-.764l3.464-16.245a2.268 2.268 0 0 0-.042-1.166l.004.016a2.088 2.088 0 0 0-.588-.949l-.001-.001zm-.954 1.68L26.5 27.008a.343.343 0 0 1-.122.194l-.001.001a.31.31 0 0 1-.221.03h.002c-3.039-.961-6.535-1.515-10.159-1.515s-7.12.554-10.406 1.582l.247-.067a.242.242 0 0 1-.215-.032l.001.001a.287.287 0 0 1-.081-.082l-.001-.001a.31.31 0 0 1-.045-.109v-.002L2.022 10.764a.338.338 0 0 1 .058-.257l-.001.001a.283.283 0 0 1 .095-.084l.001-.001a.27.27 0 0 1 .119-.033l.109.03 6.9 3.375a1.738 1.738 0 0 0 1.392.072l-.012.004a1.965 1.965 0 0 0 1.055-.964l.005-.011 4.022-7.951a.277.277 0 0 1 .094-.114l.001-.001a.24.24 0 0 1 .273.001l-.001-.001a.28.28 0 0 1 .095.113l.001.002 4.022 7.95c.23.46.609.809 1.061.976s.945.14 1.38-.076l6.9-3.375a.25.25 0 0 1 .286.043.31.31 0 0 1 .087.134l.001.002a.316.316 0 0 1 .008.166v-.002zm-8.796 11.398a.946.946 0 0 1-.27.575.789.789 0 0 1-.548.235h-.083a39.343 39.343 0 0 0-8.743.017l.179-.017a.763.763 0 0 1-.599-.193l.001.001a.929.929 0 0 1-.301-.598v-.004a.978.978 0 0 1 .186-.663l-.002.003a.817.817 0 0 1 .547-.329h.004c1.334-.165 2.879-.259 4.445-.259s3.111.094 4.628.277l-.183-.018c.214.026.409.143.547.324s.205.415.189.65z"/>
    </symbol>
    <symbol id="icon-equipment2" viewBox="0 0 32 32">
      <path d="M9.755 11.589H-.137a.538.538 0 0 0-.55.527v3.164c0 .292.246.528.55.528h.549v12.127c0 .292.246.528.55.528h7.693c.304 0 .55-.236.55-.528V15.808h.549a.538.538 0 0 0 .549-.528v-3.163a.539.539 0 0 0-.549-.528zM3.71 21.607v-1.055h3.297v-1.055H3.71v-1.055h4.396v6.854H3.711V22.66H4.81v-1.055h-1.1zm4.396-4.218H3.161a.538.538 0 0 0-.549.528v7.908c0 .292.246.528.549.528h4.946v1.055H1.512v-11.6h6.594v1.581zm1.1-2.636H.412v-2.109h8.794v2.109zm7.831-3.065V7.833a.546.546 0 0 0-.55-.543h-.549V4.577h1.099V3.49h-6.045v1.087h3.847V7.29h-.554c-.3 0-.544.243-.545.543v3.855c-1.252.252-2.198 1.348-2.198 2.659v13.571c0 .301.246.543.55.543h6.598c.3 0 .544-.243.545-.543v-13.57c0-1.31-.945-2.407-2.198-2.659zm-2.199-3.311h1.099v3.257h-1.099V8.377zm-.55 4.341h2.198a1.64 1.64 0 0 1 1.648 1.628v.543h-5.495v-.543c0-.898.74-1.628 1.648-1.628zm3.848 12.485H12.64v-1.084h2.198v-1.087H12.64v-7.056h5.495v9.228zm-5.496 2.172v-1.086h5.495v1.086H12.64zm18.445-16.461h-9.274a.524.524 0 0 0-.515.523V27.93c0 .295.231.532.515.532h9.274a.524.524 0 0 0 .515-.531V11.438a.523.523 0 0 0-.515-.523zm-.516 16.484h-8.243v-15.42h8.243v15.42z"/>
      <path d="M7.556 21.712H6.182v.675h1.374v-.675zm9.618 1.35H15.8v1.35h1.374v-1.35zm-1.717-1.35c1.325 0 2.404-1.059 2.404-2.362s-1.078-2.362-2.404-2.362c-1.326 0-2.404 1.06-2.404 2.362s1.078 2.362 2.404 2.362zm0-3.543c.662 0 1.202.53 1.202 1.181s-.54 1.181-1.203 1.181c-.662 0-1.202-.53-1.202-1.181s.539-1.181 1.202-1.181zm9.702-1.856h2.576c.995 0 1.804-.756 1.804-1.686s-.809-1.688-1.804-1.688h-2.576c-.994 0-1.803.758-1.803 1.688s.809 1.687 1.803 1.687zm3.349-1.687c0 .398-.347.723-.773.723h-.772v-1.446h.772c.426 0 .773.324.773.723zm-3.349-.723h.772v1.446h-.772c-.426 0-.773-.324-.773-.723s.347-.723.773-.723zm0 7.809h2.576c.995 0 1.804-.908 1.804-2.024s-.809-2.025-1.804-2.025h-2.576c-.994 0-1.803.908-1.803 2.024s.809 2.024 1.803 2.024zm3.349-2.024c0 .478-.347.867-.773.867h-.772V18.82h.772c.426 0 .773.389.773.868zm-3.349-.868h.772v1.735h-.772c-.426 0-.773-.389-.773-.868s.347-.868.773-.868zm0 7.616h2.576c.995 0 1.804-.908 1.804-2.024s-.809-2.025-1.804-2.025h-2.576c-.994 0-1.803.908-1.803 2.024s.809 2.025 1.803 2.025zm3.349-2.024c0 .479-.347.868-.773.868h-.772v-1.735h.772c.426 0 .773.389.773.868zm-3.349-.867h.772v1.735h-.772c-.426 0-.773-.389-.773-.868s.347-.868.773-.868z"/>
    </symbol>
    <symbol id="icon-atom1" viewBox="0 0 32 32">
      <path d="M16.067.073c-1.145 0-2.215.521-3.127 1.375s-1.692 2.044-2.343 3.485a18.57 18.57 0 0 0-.391.94 14.438 14.438 0 0 0-.933-.124l-.078-.007a13.942 13.942 0 0 0-1.131-.072h-.02c-1.12-.027-2.143.087-3.04.359-1.196.363-2.182 1.028-2.755 2.02s-.656 2.18-.372 3.396c.284 1.217.924 2.487 1.847 3.772.193.269.4.539.618.809-.184.225-.387.488-.582.757l-.036.052c-.923 1.284-1.563 2.555-1.847 3.772s-.2 2.404.372 3.396c.573.991 1.56 1.657 2.756 2.02s2.616.444 4.189.287c.33-.033.667-.077 1.01-.131.121.317.252.631.391.941.651 1.441 1.431 2.631 2.343 3.485s1.982 1.376 3.127 1.376 2.215-.522 3.127-1.376c.911-.855 1.692-2.044 2.342-3.485.14-.31.271-.624.393-.941.342.054.679.098 1.008.131 1.574.157 2.995.076 4.19-.287 1.196-.362 2.183-1.028 2.756-2.02s.655-2.179.372-3.396c-.284-1.216-.924-2.487-1.847-3.771a17.976 17.976 0 0 0-.644-.842l.026.033c.214-.264.42-.534.618-.809.924-1.284 1.564-2.555 1.847-3.772s.201-2.404-.372-3.396-1.56-1.658-2.755-2.02c-.897-.271-1.92-.385-3.04-.359-.423.011-.822.037-1.216.078l.066-.006c-.329.033-.667.077-1.01.131a15.861 15.861 0 0 0-.437-1.053l.046.113c-.651-1.441-1.431-2.631-2.343-3.485S17.21.073 16.064.073zm0 1.273c.764 0 1.513.336 2.256 1.032.742.696 1.452 1.749 2.052 3.079.097.217.191.436.279.657-1.46.325-3.007.823-4.588 1.489a27 27 0 0 0-4.587-1.488c.09-.225.183-.446.279-.658.601-1.331 1.311-2.384 2.053-3.08s1.492-1.031 2.256-1.031zM7.64 6.941h.063c.481 0 .955.025 1.423.073l-.059-.005c.233.023.47.053.711.087a27.134 27.134 0 0 0-1.006 4.717 27.01 27.01 0 0 0-3.583 3.229 14.151 14.151 0 0 1-.4-.526l-.031-.045c-.852-1.185-1.409-2.327-1.641-3.318s-.148-1.807.235-2.469c.382-.662 1.047-1.142 2.021-1.438.639-.193 1.404-.298 2.265-.305zm16.852 0c.861.008 1.626.113 2.265.306.975.295 1.639.776 2.022 1.438s.465 1.479.234 2.469c-.231.991-.788 2.132-1.641 3.318-.139.193-.284.384-.431.572a26.929 26.929 0 0 0-3.582-3.229 27.024 27.024 0 0 0-1.005-4.717c.24-.035.478-.065.71-.088.41-.044.885-.069 1.366-.069h.065-.003zm-3.403.385c.318.953.606 2.118.809 3.311l.02.146a33.554 33.554 0 0 0-4.035-2.356l-.202-.091a22.955 22.955 0 0 1 3.242-.979l.166-.031zm-10.044 0c1.08.233 2.225.571 3.407 1.011a34.33 34.33 0 0 0-4.355 2.522l.119-.077c.223-1.339.511-2.503.878-3.631l-.049.175zm5.021 1.667a31.759 31.759 0 0 1 3.292 1.678l-.153-.083a32.699 32.699 0 0 1 2.951 1.921c.123 1.127.189 2.304.189 3.516a32.42 32.42 0 0 1-.189 3.514 31.486 31.486 0 0 1-2.796 1.837l-.154.083a30.248 30.248 0 0 1-2.933 1.512l-.206.083a31.759 31.759 0 0 1-3.292-1.678l.154.083a32.192 32.192 0 0 1-3.04-1.983l.09.063a31.567 31.567 0 0 1-.188-3.5v-.017.001c0-1.212.065-2.389.188-3.516a31.486 31.486 0 0 1 2.796-1.837l.154-.083a30.03 30.03 0 0 1 2.933-1.511l.206-.083zm.087 1.918-3.648 2.252 3.648 2.251 3.647-2.251-3.647-2.252zM8.601 13.58a34.96 34.96 0 0 0 .007 5.005l-.007-.113a24.91 24.91 0 0 1-2.562-2.428l-.017-.019c.8-.874 1.642-1.674 2.537-2.412l.042-.034zm14.932 0a24.897 24.897 0 0 1 2.561 2.427l.017.019a24.81 24.81 0 0 1-2.536 2.411l-.042.034a34.98 34.98 0 0 0-.007-5.004l.007.113zm-11.85.572v4.445l3.831 2.364v-4.445l-3.831-2.364zm8.936.002-3.831 2.364v4.444l3.831-2.364v-4.444zM5.191 17.007a26.94 26.94 0 0 0 3.583 3.229 27.012 27.012 0 0 0 1.005 4.716c-.24.035-.478.064-.71.087-1.452.145-2.719.058-3.693-.238s-1.639-.776-2.022-1.438c-.381-.662-.465-1.478-.234-2.469s.789-2.132 1.641-3.318c.139-.193.283-.383.431-.57zm21.751 0c.151.191.295.381.431.57.852 1.185 1.409 2.327 1.641 3.318s.148 1.807-.235 2.469c-.382.662-1.047 1.143-2.021 1.438s-2.24.383-3.693.238a16.93 16.93 0 0 1-.709-.087 27.056 27.056 0 0 0 1.005-4.718 26.924 26.924 0 0 0 3.582-3.228zm-5.024 4.261a24.591 24.591 0 0 1-.878 3.632l.049-.175a24.45 24.45 0 0 1-3.576-1.068l.169.057a34.467 34.467 0 0 0 4.356-2.523l-.12.077zm-11.702 0a33.521 33.521 0 0 0 4.033 2.355l.202.091c-.932.367-2.071.715-3.242.979l-.165.031a22.8 22.8 0 0 1-.808-3.31l-.02-.146zm5.888.058.047.029.047-.029h-.092zm-.038 3.121a27.01 27.01 0 0 0 4.588 1.488c-.088.222-.182.441-.279.66-.601 1.33-1.31 2.383-2.053 3.079-.742.696-1.491 1.031-2.255 1.031s-1.513-.335-2.256-1.031c-.743-.696-1.452-1.749-2.053-3.079a17.382 17.382 0 0 1-.279-.66 27.038 27.038 0 0 0 4.588-1.488z"/>
    </symbol>
  </defs>
</svg>
